<svg width="960" height="420" viewBox="0 0 960 420" fill="none" xmlns="http://www.w3.org/2000/svg" role="img" aria-labelledby="title desc">
  <title id="title">Factory location map illustration</title>
  <desc id="desc">Stylized local map illustration for the Boheng factory contact section.</desc>
  <defs>
    <linearGradient id="bg" x1="92" y1="48" x2="880" y2="376" gradientUnits="userSpaceOnUse">
      <stop stop-color="#F2F8FC"/>
      <stop offset="1" stop-color="#DDECF7"/>
    </linearGradient>
    <linearGradient id="road" x1="236" y1="126" x2="760" y2="336" gradientUnits="userSpaceOnUse">
      <stop stop-color="#C3D9EA"/>
      <stop offset="1" stop-color="#A9C8DE"/>
    </linearGradient>
    <filter id="shadow" x="0" y="0" width="960" height="420" filterUnits="userSpaceOnUse" color-interpolation-filters="sRGB">
      <feDropShadow dx="0" dy="16" stdDeviation="24" flood-color="#2C6EA3" flood-opacity="0.14"/>
    </filter>
  </defs>

  <rect x="24" y="20" width="912" height="380" rx="34" fill="url(#bg)"/>

  <g opacity="0.5">
    <path d="M80 88H882" stroke="#C9DEED" stroke-width="2" stroke-dasharray="8 12"/>
    <path d="M80 158H882" stroke="#C9DEED" stroke-width="2" stroke-dasharray="8 12"/>
    <path d="M80 228H882" stroke="#C9DEED" stroke-width="2" stroke-dasharray="8 12"/>
    <path d="M80 298H882" stroke="#C9DEED" stroke-width="2" stroke-dasharray="8 12"/>
    <path d="M158 54V360" stroke="#C9DEED" stroke-width="2" stroke-dasharray="8 12"/>
    <path d="M326 54V360" stroke="#C9DEED" stroke-width="2" stroke-dasharray="8 12"/>
    <path d="M494 54V360" stroke="#C9DEED" stroke-width="2" stroke-dasharray="8 12"/>
    <path d="M662 54V360" stroke="#C9DEED" stroke-width="2" stroke-dasharray="8 12"/>
    <path d="M830 54V360" stroke="#C9DEED" stroke-width="2" stroke-dasharray="8 12"/>
  </g>

  <path d="M64 286C140 256 236 262 328 278C430 296 528 330 626 312C706 298 766 244 840 224C874 214 904 210 928 210V388H64V286Z" fill="#CAE3F3" opacity="0.6"/>
  <path d="M88 334C156 312 252 324 334 348C430 376 538 388 632 364C718 342 778 294 850 276C876 270 902 268 920 268" stroke="#8CB7D4" stroke-width="18" stroke-linecap="round" opacity="0.55"/>

  <path d="M138 124C208 164 246 150 316 188C372 218 420 216 472 182C544 136 604 142 682 184C744 218 812 224 872 198" stroke="url(#road)" stroke-width="26" stroke-linecap="round"/>
  <path d="M186 292C270 264 346 270 412 300C486 332 568 336 634 302C696 270 764 260 850 280" stroke="#B8D2E5" stroke-width="22" stroke-linecap="round"/>
  <path d="M560 82C520 126 510 176 522 224C530 258 526 292 498 324" stroke="#97BFD9" stroke-width="18" stroke-linecap="round" opacity="0.85"/>

  <g filter="url(#shadow)">
    <rect x="566" y="96" width="254" height="120" rx="24" fill="#F8FCFF"/>
    <rect x="590" y="122" width="112" height="12" rx="6" fill="#2C6EA3" opacity="0.9"/>
    <rect x="590" y="148" width="168" height="10" rx="5" fill="#84A9C2"/>
    <rect x="590" y="170" width="142" height="10" rx="5" fill="#B1CADD"/>
    <circle cx="776" cy="156" r="20" fill="#E5F1F8"/>
    <path d="M776 144V168" stroke="#2C6EA3" stroke-width="4" stroke-linecap="round"/>
    <path d="M764 156H788" stroke="#2C6EA3" stroke-width="4" stroke-linecap="round"/>
  </g>

  <g filter="url(#shadow)">
    <path d="M430 108C460.376 108 485 132.624 485 163C485 204.03 430 252 430 252C430 252 375 204.03 375 163C375 132.624 399.624 108 430 108Z" fill="#2C6EA3"/>
    <circle cx="430" cy="163" r="20" fill="#F8FCFF"/>
    <circle cx="430" cy="163" r="8" fill="#9AC0DB"/>
  </g>

  <path d="M430 252V314" stroke="#2C6EA3" stroke-width="6" stroke-linecap="round" opacity="0.65"/>
  <circle cx="430" cy="314" r="11" fill="#2C6EA3"/>

  <rect x="354" y="292" width="156" height="44" rx="22" fill="#113F61" opacity="0.94"/>
  <text x="432" y="320" text-anchor="middle" font-size="18" font-family="Microsoft YaHei, Arial, sans-serif" fill="#F8FCFF">FACTORY AREA</text>
</svg>
